<svg width="56" height="56" viewBox="0 0 56 56" fill="none" xmlns="http://www.w3.org/2000/svg">
<circle cx="28" cy="28" r="28" transform="rotate(90 28 28)" fill="#06142E"/>
<path d="M28.5664 15.4431L37.5664 24.4431C37.8481 24.7249 38.0065 25.1071 38.0065 25.5056C38.0065 25.9041 37.8481 26.2863 37.5664 26.5681C37.2846 26.8499 36.9024 27.0082 36.5039 27.0082C36.1053 27.0082 35.7231 26.8499 35.4414 26.5681L29.0051 20.1293L29.0051 38.5043C29.0051 38.9022 28.8471 39.2837 28.5658 39.565C28.2845 39.8463 27.9029 40.0043 27.5051 40.0043C27.1073 40.0043 26.7257 39.8463 26.4444 39.565C26.1631 39.2837 26.0051 38.9022 26.0051 38.5043L26.0051 20.1293L19.5651 26.5656C19.2833 26.8474 18.9011 27.0057 18.5026 27.0057C18.1041 27.0057 17.7219 26.8474 17.4401 26.5656C17.1583 26.2838 17 25.9016 17 25.5031C17 25.1046 17.1583 24.7224 17.4401 24.4406L26.4401 15.4406C26.5796 15.3007 26.7454 15.1898 26.928 15.1142C27.1105 15.0386 27.3062 14.9998 27.5037 15C27.7013 15.0003 27.8969 15.0395 28.0792 15.1155C28.2616 15.1916 28.4271 15.3029 28.5664 15.4431Z" fill="#F5EEE6"/>
</svg>
