<svg width="68" height="68" viewBox="0 0 68 68" fill="none" xmlns="http://www.w3.org/2000/svg">
<g filter="url(#filter0_d_304_24)">
<circle cx="34" cy="30" r="30" fill="#ECE7E1"/>
</g>
<path d="M24.6082 23.1519C24.5582 21.7075 25.6839 20.375 27.2057 20.375H42.797C44.3189 20.375 45.4445 21.7075 45.3939 23.1519C45.3457 24.54 45.4082 26.3375 45.8607 27.8037C46.3145 29.2744 47.0801 30.2037 48.3339 30.3231V31.6775C47.0801 31.7969 46.3151 32.7262 45.8607 34.1969C45.4082 35.6625 45.3457 37.4606 45.3939 38.8487C45.4439 40.2925 44.3182 41.625 42.797 41.625H27.2057C25.6845 41.625 24.5582 40.2925 24.6089 38.8481C24.657 37.46 24.5945 35.6625 24.142 34.1963C23.6882 32.7256 22.9207 31.7963 21.667 31.6769V30.3225C22.9207 30.2031 23.6876 29.2738 24.142 27.8031C24.5939 26.3375 24.657 24.54 24.6082 23.1519Z" fill="#7C4DFF"/>
<path d="M36.9206 30.6651V30.6476C38.0787 30.4476 38.9825 29.3619 38.9825 28.1663C38.9825 27.3213 38.6575 26.6051 38.0425 26.0963C37.4294 25.5888 36.5694 25.3207 35.5544 25.3207H30.9062V36.6751H35.5781C36.7919 36.6751 37.8 36.3788 38.4925 35.8176C39.1856 35.2557 39.5525 34.4382 39.5525 33.4532C39.5519 31.9651 38.4956 30.8476 36.9206 30.6651ZM34.7437 30.1301H32.7556V26.8063H35.1206C36.4181 26.8063 37.1325 27.3757 37.1325 28.4094C37.1331 29.5188 36.2844 30.1301 34.7437 30.1301ZM32.7556 31.5213H35.105C36.8025 31.5213 37.6625 32.1344 37.6625 33.3438C37.6625 34.5513 36.8144 35.1894 35.2094 35.1894H32.7556V31.5213Z" fill="white"/>
<defs>
<filter id="filter0_d_304_24" x="0" y="0" width="68" height="68" filterUnits="userSpaceOnUse" color-interpolation-filters="sRGB">
<feFlood flood-opacity="0" result="BackgroundImageFix"/>
<feColorMatrix in="SourceAlpha" type="matrix" values="0 0 0 0 0 0 0 0 0 0 0 0 0 0 0 0 0 0 127 0" result="hardAlpha"/>
<feOffset dy="4"/>
<feGaussianBlur stdDeviation="2"/>
<feComposite in2="hardAlpha" operator="out"/>
<feColorMatrix type="matrix" values="0 0 0 0 0 0 0 0 0 0 0 0 0 0 0 0 0 0 0.25 0"/>
<feBlend mode="normal" in2="BackgroundImageFix" result="effect1_dropShadow_304_24"/>
<feBlend mode="normal" in="SourceGraphic" in2="effect1_dropShadow_304_24" result="shape"/>
</filter>
</defs>
</svg>
