<svg width="20" height="20" viewBox="0 0 20 20" fill="none" xmlns="http://www.w3.org/2000/svg">
<path d="M3.07204 4.76792C3.03871 3.80501 3.78912 2.91667 4.80371 2.91667H15.1979C16.2125 2.91667 16.9629 3.80501 16.9291 4.76792C16.897 5.69334 16.9387 6.89167 17.2404 7.86917C17.5429 8.84959 18.0533 9.46917 18.8891 9.54876V10.4517C18.0533 10.5313 17.5433 11.1508 17.2404 12.1313C16.9387 13.1083 16.897 14.3071 16.9291 15.2325C16.9625 16.195 16.212 17.0833 15.1979 17.0833H4.80371C3.78954 17.0833 3.03871 16.195 3.07246 15.2321C3.10454 14.3067 3.06287 13.1083 2.76121 12.1308C2.45871 11.1504 1.94704 10.5308 1.11121 10.4513V9.54834C1.94704 9.46876 2.45829 8.84917 2.76121 7.86876C3.06246 6.89167 3.10454 5.69334 3.07204 4.76792Z" fill="#7C4DFF"/>
<path d="M11.2805 9.77666V9.765C12.0525 9.63166 12.655 8.90791 12.655 8.11083C12.655 7.54749 12.4384 7.06999 12.0284 6.73083C11.6196 6.39249 11.0463 6.21375 10.3696 6.21375H7.27087V13.7833H10.3855C11.1946 13.7833 11.8667 13.5858 12.3284 13.2117C12.7905 12.8371 13.035 12.2921 13.035 11.6354C13.0346 10.6433 12.3305 9.89833 11.2805 9.77666ZM9.82921 9.41999H8.50379V7.20416H10.0805C10.9455 7.20416 11.4217 7.58374 11.4217 8.27291C11.4221 9.01249 10.8563 9.41999 9.82921 9.41999ZM8.50379 10.3475H10.07C11.2017 10.3475 11.775 10.7562 11.775 11.5625C11.775 12.3675 11.2096 12.7929 10.1396 12.7929H8.50379V10.3475Z" fill="white"/>
</svg>
