<svg width="20" height="23" viewBox="0 0 20 23" fill="none" xmlns="http://www.w3.org/2000/svg">
<path d="M1.81951 20.4156L0 0H20L18.1781 20.4123L9.98785 22.6831L1.81951 20.4156Z" fill="#1572B6"/>
<path d="M10 20.9478L16.6186 19.1129L18.1756 1.66963H10V20.9478Z" fill="#33A9DC"/>
<path d="M10 9.06594H13.3134L13.5418 6.50195H10V3.99789H10.0089H16.2784L16.2184 4.66948L15.6035 11.57H10V9.06594Z" fill="white"/>
<path d="M10.0154 15.5687L10.0041 15.5719L7.21568 14.8185L7.03745 12.8216H5.68214H4.52368L4.87446 16.7531L10.0033 18.1772L10.0154 18.174V15.5687Z" fill="#EBEBEB"/>
<path d="M13.1003 11.4639L12.7989 14.8169L10.0065 15.5703V18.1756L15.1393 16.7531L15.1774 16.3302L15.6124 11.4639H13.1003Z" fill="white"/>
<path d="M10.0089 3.99789V5.55331V6.49546V6.50195H3.96871H3.96061L3.91038 5.93892L3.79615 4.66948L3.73621 3.99789H10.0089Z" fill="#EBEBEB"/>
<path d="M9.99986 9.06593V10.6213V11.5635V11.57H7.2544H7.2463L7.19607 11.007L7.08265 9.73752L7.02271 9.06593H9.99986Z" fill="#EBEBEB"/>
</svg>
