<svg width="224" height="208" viewBox="0 0 224 208" fill="none" xmlns="http://www.w3.org/2000/svg">
<g filter="url(#filter0_d_102_29)">
<ellipse cx="112" cy="100" rx="108" ry="100" fill="#C3B6CA"/>
<path d="M219 100C219 154.605 171.168 199 112 199C52.8317 199 5 154.605 5 100C5 45.3949 52.8317 1 112 1C171.168 1 219 45.3949 219 100Z" stroke="black" stroke-width="2"/>
</g>
<path d="M92.78 124H84.5V61C88.28 61 91.91 60.79 95.39 60.37C98.87 59.95 102.38 59.74 105.92 59.74C108.8 59.74 111.92 59.98 115.28 60.46C118.7 60.94 121.85 61.84 124.73 63.16C127.67 64.48 130.1 66.31 132.02 68.65C133.94 70.99 134.9 73.99 134.9 77.65C134.9 80.47 134.21 82.99 132.83 85.21C131.51 87.37 129.62 89.2 127.16 90.7C124.7 92.2 121.73 93.34 118.25 94.12C114.83 94.9 111.02 95.23 106.82 95.11H92.78V124ZM106.82 94.21C110.66 94.33 113.84 93.88 116.36 92.86C118.94 91.78 121.01 90.4 122.57 88.72C124.13 87.04 125.24 85.21 125.9 83.23C126.62 81.25 127.04 79.36 127.16 77.56C127.34 74.14 126.86 71.35 125.72 69.19C124.64 66.97 123.11 65.23 121.13 63.97C119.15 62.71 116.84 61.84 114.2 61.36C111.56 60.88 108.8 60.64 105.92 60.64C103.7 60.64 101.51 60.76 99.35 61C97.19 61.18 95 61.36 92.78 61.54V94.21H106.82Z" fill="black"/>
<path d="M153.49 148H143.95L133.96 130.81C132.04 127.51 129.94 124.75 127.66 122.53C125.44 120.25 123.07 119.11 120.55 119.11H106.69V148H98.5V85C102.28 85 105.88 84.79 109.3 84.37C112.78 83.95 116.23 83.74 119.65 83.74C122.59 83.74 125.74 83.98 129.1 84.46C132.52 84.94 135.7 85.84 138.64 87.16C141.58 88.48 144.01 90.31 145.93 92.65C147.91 94.99 148.9 97.99 148.9 101.65C148.9 106.27 147.1 110.05 143.5 112.99C139.96 115.93 135.07 117.82 128.83 118.66C130.27 118.9 131.59 119.26 132.79 119.74C134.05 120.16 135.22 120.79 136.3 121.63C137.44 122.41 138.52 123.43 139.54 124.69C140.56 125.89 141.58 127.36 142.6 129.1L153.49 148ZM121.9 118.21C125.5 118.15 128.5 117.58 130.9 116.5C133.36 115.42 135.31 114.07 136.75 112.45C138.25 110.83 139.33 109.06 139.99 107.14C140.65 105.16 141.04 103.3 141.16 101.56C141.34 98.14 140.86 95.35 139.72 93.19C138.58 90.97 136.99 89.23 134.95 87.97C132.97 86.71 130.63 85.84 127.93 85.36C125.29 84.88 122.53 84.64 119.65 84.64C117.55 84.64 115.42 84.76 113.26 85C111.1 85.18 108.91 85.36 106.69 85.54V118.21H121.9Z" fill="black"/>
<path d="M158.364 112C156.464 115.067 155.156 116.551 152 118.364C155.008 120.568 156.388 121.97 158.364 124.728C160.181 121.608 161.568 120.222 164.728 118.364C161.885 116.308 160.47 114.911 158.364 112Z" fill="black" stroke="black"/>
<defs>
<filter id="filter0_d_102_29" x="0" y="0" width="224" height="208" filterUnits="userSpaceOnUse" color-interpolation-filters="sRGB">
<feFlood flood-opacity="0" result="BackgroundImageFix"/>
<feColorMatrix in="SourceAlpha" type="matrix" values="0 0 0 0 0 0 0 0 0 0 0 0 0 0 0 0 0 0 127 0" result="hardAlpha"/>
<feOffset dy="4"/>
<feGaussianBlur stdDeviation="2"/>
<feComposite in2="hardAlpha" operator="out"/>
<feColorMatrix type="matrix" values="0 0 0 0 0 0 0 0 0 0 0 0 0 0 0 0 0 0 0.25 0"/>
<feBlend mode="normal" in2="BackgroundImageFix" result="effect1_dropShadow_102_29"/>
<feBlend mode="normal" in="SourceGraphic" in2="effect1_dropShadow_102_29" result="shape"/>
</filter>
</defs>
</svg>
