<svg width="32" height="32" viewBox="0 0 32 32" fill="none" xmlns="http://www.w3.org/2000/svg">
<g clip-path="url(#clip0_257_2)">
<path fill-rule="evenodd" clip-rule="evenodd" d="M16.0004 0.666626C12.2021 0.668597 8.52825 2.0139 5.63591 4.46199C2.74356 6.91008 0.821286 10.3013 0.212807 14.0293C-0.395671 17.7573 0.349317 21.5789 2.31458 24.8109C4.27983 28.0428 7.3372 30.4743 10.94 31.6706C11.7348 31.8181 12.0342 31.3255 12.0342 30.9066C12.0342 30.4878 12.0183 29.2733 12.013 27.9456C7.56194 28.9071 6.62139 26.0673 6.62139 26.0673C5.89545 24.2232 4.84626 23.7385 4.84626 23.7385C3.39437 22.7532 4.9549 22.7717 4.9549 22.7717C6.56311 22.8849 7.40829 24.4129 7.40829 24.4129C8.83369 26.8444 11.1519 26.141 12.0633 25.7301C12.2064 24.7 12.6224 23.9993 13.0807 23.6015C9.52519 23.2011 5.78947 21.8365 5.78947 15.7405C5.76743 14.1596 6.35744 12.6307 7.43743 11.4702C7.27316 11.0698 6.72472 9.45227 7.59374 7.2552C7.59374 7.2552 8.93702 6.82843 11.9945 8.88588C14.617 8.17279 17.3839 8.17279 20.0064 8.88588C23.0612 6.82843 24.4018 7.2552 24.4018 7.2552C25.2735 9.447 24.7251 11.0645 24.5608 11.4702C25.6442 12.6309 26.2354 14.1624 26.2114 15.7458C26.2114 21.8549 22.4677 23.2011 18.9069 23.5936C19.4791 24.0889 19.9905 25.0557 19.9905 26.5415C19.9905 28.67 19.972 30.3824 19.972 30.9066C19.972 31.3308 20.2607 31.826 21.0715 31.6706C24.6747 30.4742 27.7323 28.0422 29.6976 24.8097C31.6628 21.5772 32.4074 17.755 31.7982 14.0267C31.189 10.2984 29.2658 6.9071 26.3725 4.45943C23.4792 2.01177 19.8045 0.667348 16.0057 0.666626H16.0004Z" fill="#06142E"/>
<path d="M6.05933 23.5093C6.02489 23.5884 5.89771 23.6121 5.79439 23.5568C5.69106 23.5014 5.61423 23.3987 5.65132 23.317C5.68841 23.2354 5.81294 23.2143 5.91627 23.2696C6.01959 23.3249 6.09907 23.4303 6.05933 23.5093Z" fill="#06142E"/>
<path d="M6.70847 24.2285C6.6536 24.256 6.59083 24.2636 6.5309 24.2502C6.47096 24.2367 6.41761 24.203 6.37994 24.1547C6.27661 24.0441 6.2554 23.8913 6.33489 23.8228C6.41437 23.7543 6.55745 23.7859 6.66078 23.8965C6.76411 24.0072 6.78795 24.16 6.70847 24.2285Z" fill="#06142E"/>
<path d="M7.33891 25.1427C7.24088 25.2112 7.07396 25.1427 6.98123 25.0057C6.95559 24.9811 6.9352 24.9517 6.92127 24.9191C6.90733 24.8865 6.90015 24.8515 6.90015 24.816C6.90015 24.7806 6.90733 24.7456 6.92127 24.713C6.9352 24.6804 6.95559 24.6509 6.98123 24.6264C7.07926 24.5605 7.24618 24.6264 7.33891 24.7607C7.43164 24.8951 7.43429 25.0742 7.33891 25.1427V25.1427Z" fill="#06142E"/>
<path d="M8.19474 26.0277C8.10731 26.1252 7.9298 26.0989 7.78408 25.9672C7.63836 25.8354 7.60391 25.6563 7.69134 25.5615C7.77877 25.4666 7.95628 25.493 8.1073 25.6221C8.25832 25.7511 8.28747 25.9329 8.19474 26.0277V26.0277Z" fill="#06142E"/>
<path d="M9.39482 26.5441C9.35508 26.668 9.17491 26.7233 8.99475 26.6706C8.81459 26.6179 8.69536 26.4704 8.7298 26.3439C8.76425 26.2175 8.94706 26.1595 9.12987 26.2175C9.31268 26.2754 9.42926 26.4151 9.39482 26.5441Z" fill="#06142E"/>
<path d="M10.7038 26.6337C10.7038 26.7628 10.5554 26.8735 10.3647 26.8761C10.1739 26.8787 10.0176 26.7734 10.0176 26.6443C10.0176 26.5152 10.1659 26.4045 10.3567 26.4019C10.5475 26.3993 10.7038 26.502 10.7038 26.6337Z" fill="#06142E"/>
<path d="M11.9226 26.4309C11.9465 26.56 11.814 26.6943 11.6232 26.7259C11.4325 26.7576 11.2655 26.6812 11.2417 26.5547C11.2179 26.4283 11.3556 26.2913 11.5411 26.257C11.7265 26.2228 11.8988 26.3018 11.9226 26.4309Z" fill="#06142E"/>
</g>
<defs>
<clipPath id="clip0_257_2">
<rect width="32" height="32" fill="white"/>
</clipPath>
</defs>
</svg>
