<svg width="20" height="23" viewBox="0 0 20 23" fill="none" xmlns="http://www.w3.org/2000/svg">
<path d="M1.82017 20.4139L0 0H20L18.1774 20.4107L9.98785 22.6812L1.82017 20.4139Z" fill="#E44F26"/>
<path d="M10 20.9461L16.6181 19.1114L18.175 1.66951H10V20.9461Z" fill="#F1662A"/>
<path d="M10 9.24019H6.68693L6.4585 6.67639H10V4.17255H9.9911H3.72217L3.78211 4.84488L4.39694 11.744H10V9.24019Z" fill="#EBEBEB"/>
<path d="M9.99996 15.7424L9.98862 15.7456L7.20045 14.9931L7.02224 12.9964H5.66703H4.50867L4.85942 16.9267L9.98862 18.3507L9.99996 18.3475V15.7424Z" fill="#EBEBEB"/>
<path d="M9.99121 9.24019V11.744H13.0742L12.7842 14.9915L9.99121 15.7448V18.35L15.1245 16.9267L15.1617 16.5039L15.7498 9.91253L15.8114 9.24019H15.1366H9.99121Z" fill="white"/>
<path d="M9.99109 4.17255V5.72783V6.67072V6.67639H16.0308H16.0389L16.0891 6.11422L16.2033 4.84488L16.2633 4.17255H9.99109Z" fill="white"/>
</svg>
