<svg width="20" height="20" viewBox="0 0 20 20" fill="none" xmlns="http://www.w3.org/2000/svg">
<path d="M0 0H20V20H0V0Z" fill="#F5DE19"/>
<path d="M13.435 15.625C13.6054 15.9711 13.8702 16.2621 14.1988 16.4643C14.5274 16.6665 14.9064 16.7717 15.2922 16.7679C16.0707 16.7679 16.5686 16.3786 16.5686 15.8393C16.5686 15.1964 16.0572 14.9664 15.2 14.5914L14.73 14.39C13.3729 13.8121 12.4729 13.0886 12.4729 11.5586C12.4729 10.1493 13.5443 9.07571 15.225 9.07571C15.7691 9.03642 16.3127 9.15819 16.788 9.42583C17.2634 9.69347 17.6494 10.0951 17.8979 10.5807L16.4286 11.52C16.3329 11.2792 16.1663 11.0732 15.9508 10.9293C15.7354 10.7854 15.4812 10.7104 15.2222 10.7143C15.1091 10.703 14.995 10.7153 14.887 10.7506C14.779 10.7858 14.6796 10.8431 14.595 10.9189C14.5104 10.9947 14.4425 11.0873 14.3956 11.1908C14.3488 11.2943 14.324 11.4064 14.3229 11.52C14.3229 12.0836 14.6722 12.3121 15.4786 12.6629L15.9486 12.8643C17.5457 13.5493 18.4486 14.2471 18.4486 15.8164C18.4486 17.5086 17.1193 18.4357 15.3343 18.4357C14.6388 18.48 13.9454 18.3221 13.3376 17.9811C12.7299 17.64 12.2338 17.1303 11.9093 16.5136L13.435 15.625ZM6.79575 15.7879C7.09075 16.3114 7.35932 16.7543 8.00503 16.7543C8.62218 16.7543 9.01218 16.5129 9.01218 15.5736V9.18286H10.8915V15.5986C10.8915 17.5443 9.7486 18.43 8.08503 18.43C7.497 18.4621 6.913 18.3156 6.40981 18.0096C5.90662 17.7037 5.50779 17.2526 5.26575 16.7157L6.79575 15.7879Z" fill="black"/>
</svg>
