<svg width="68" height="68" viewBox="0 0 68 68" fill="none" xmlns="http://www.w3.org/2000/svg">
<g filter="url(#filter0_d_304_18)">
<circle cx="34" cy="30" r="30" fill="#ECE7E1"/>
</g>
<path d="M36.6643 15C36.4474 15 36.246 15.0465 36.06 15.1085C36.4552 15.3719 36.6721 15.7205 36.7806 16.1156C36.7883 16.1699 36.8038 16.2086 36.8116 16.2628C36.8193 16.3093 36.827 16.3558 36.827 16.4023C36.858 17.0841 36.6488 17.1693 36.5016 17.5722C36.277 18.0913 36.3389 18.6491 36.6101 19.0985C36.6334 19.1527 36.6643 19.2147 36.7031 19.2689C36.4087 17.3088 38.0434 17.0144 38.3456 16.4023C38.3688 15.8677 37.9272 15.5113 37.5786 15.2634C37.2454 15.062 36.9433 15 36.6643 15ZM39.1281 15.4416C39.0971 15.6198 39.1203 15.5733 39.1126 15.6663C39.1048 15.7283 39.1048 15.8057 39.0971 15.8677C39.0816 15.9297 39.0661 15.9917 39.0429 16.0537C39.0274 16.1156 39.0041 16.1776 38.9809 16.2396C38.9499 16.3016 38.9267 16.3558 38.8957 16.4178C38.8724 16.4488 38.8569 16.4798 38.8337 16.5108C38.8182 16.534 38.8027 16.5573 38.7872 16.5805C38.7485 16.6347 38.7097 16.689 38.671 16.7355C38.6245 16.7819 38.5858 16.8362 38.5315 16.8749V16.8827C38.485 16.9214 38.4386 16.9679 38.3843 17.0066C38.2216 17.1306 38.0357 17.2236 37.8652 17.3398C37.811 17.3785 37.7568 17.4095 37.7103 17.456C37.6561 17.4947 37.6096 17.5335 37.5631 17.5799C37.5089 17.6264 37.4701 17.6729 37.4236 17.7271C37.3849 17.7736 37.3384 17.8279 37.3074 17.8821C37.2687 17.9363 37.2299 17.9906 37.1989 18.0448C37.1679 18.1068 37.1447 18.161 37.1137 18.223C37.0905 18.285 37.0672 18.3392 37.0517 18.4012C37.0285 18.4709 37.013 18.5329 36.9975 18.5949C36.9898 18.6259 36.9898 18.6646 36.982 18.6956C36.9743 18.7266 36.9743 18.7576 36.9665 18.7886C36.9665 18.8505 36.9588 18.9203 36.9588 18.9822C36.9588 19.0287 36.9588 19.0752 36.9665 19.1217C36.9665 19.1837 36.9743 19.2457 36.9898 19.3154C36.9975 19.3774 37.013 19.4394 37.0285 19.5013C37.0518 19.5633 37.0673 19.6253 37.0905 19.6873C37.106 19.726 37.1292 19.7648 37.1447 19.7957L35.3628 19.1062C35.0606 19.021 34.7662 18.9435 34.4641 18.8738C34.3014 18.835 34.1387 18.7963 33.976 18.7576C33.5111 18.6646 33.0385 18.5949 32.5659 18.5484C32.5505 18.5484 32.5427 18.5406 32.5272 18.5406C32.0624 18.4941 31.6052 18.4709 31.1404 18.4709C30.7995 18.4709 30.4586 18.4864 30.1255 18.5096C29.6529 18.5406 29.1803 18.6026 28.7077 18.6801C28.5914 18.6956 28.4752 18.7188 28.359 18.7421C28.1188 18.7886 27.8864 18.8428 27.6617 18.897C27.5455 18.928 27.4293 18.959 27.3131 18.99C27.1969 19.0365 27.0884 19.0907 26.98 19.1372C26.8947 19.1759 26.8095 19.2147 26.7243 19.2534C26.7088 19.2612 26.6933 19.2612 26.6856 19.2689C26.6081 19.3076 26.5383 19.3386 26.4686 19.3774C26.4454 19.3851 26.4299 19.3928 26.4144 19.4006C26.3292 19.4393 26.2439 19.4858 26.1742 19.5246C26.12 19.5478 26.0658 19.5788 26.0193 19.602C25.996 19.6175 25.965 19.633 25.9495 19.6408C25.8798 19.6795 25.8101 19.7182 25.7481 19.757C25.6784 19.7957 25.6164 19.8345 25.5622 19.8732C25.5079 19.9119 25.4537 19.9429 25.4072 19.9817C25.3994 19.9894 25.3917 19.9894 25.384 19.9971C25.3375 20.0281 25.2832 20.0669 25.2368 20.1056C25.2368 20.1056 25.229 20.1134 25.2213 20.1211C25.1825 20.1521 25.1438 20.1831 25.1051 20.2141C25.0896 20.2218 25.0741 20.2373 25.0586 20.2451C25.0198 20.2761 24.9811 20.3148 24.9424 20.3458C24.9346 20.3613 24.9191 20.369 24.9114 20.3768C24.8649 20.4233 24.8184 20.462 24.7719 20.5085C24.7641 20.5085 24.7641 20.5163 24.7564 20.524C24.7099 20.5627 24.6635 20.6092 24.617 20.6557C24.6092 20.6634 24.6092 20.6712 24.6015 20.6712C24.5628 20.7099 24.524 20.7486 24.4853 20.7951C24.4698 20.8106 24.4465 20.8261 24.431 20.8416C24.3923 20.8881 24.3458 20.9346 24.2993 20.9811C24.2916 20.9966 24.2761 21.0043 24.2683 21.0198C24.2064 21.0818 24.1521 21.1438 24.0901 21.2058C24.0824 21.2135 24.0747 21.2212 24.0669 21.229C23.9429 21.3607 23.8112 21.4924 23.6718 21.6086C23.5323 21.7326 23.3851 21.8488 23.2379 21.9495C23.083 22.058 22.9358 22.1509 22.7731 22.2439C22.6181 22.3291 22.4554 22.4066 22.285 22.4763C22.1223 22.5461 21.9518 22.6081 21.7814 22.6623C21.456 22.732 21.1228 22.8637 20.8362 22.887C20.7742 22.887 20.7045 22.9025 20.6425 22.9102C20.5728 22.9257 20.5108 22.9412 20.4488 22.9567C20.3868 22.9799 20.3248 23.0032 20.2628 23.0264C20.2009 23.0497 20.1389 23.0807 20.0769 23.1116C20.0227 23.1504 19.9607 23.1814 19.9065 23.2201C19.8522 23.2588 19.798 23.3053 19.7515 23.3518C19.6973 23.3906 19.643 23.4448 19.5966 23.4913C19.5501 23.5455 19.5036 23.592 19.4649 23.6462C19.4261 23.7082 19.3796 23.7624 19.3486 23.8244C19.3099 23.8787 19.2712 23.9406 19.2402 24.0026C19.2092 24.0723 19.1782 24.1343 19.155 24.2041C19.1317 24.266 19.1085 24.3358 19.0852 24.4055C19.0697 24.4675 19.0542 24.5294 19.0465 24.5914C19.0465 24.5992 19.0387 24.6069 19.0387 24.6147C19.0232 24.6844 19.0232 24.7774 19.0155 24.8239C19.0077 24.8781 19 24.9246 19 24.9788C19 25.0098 19 25.0485 19.0078 25.0795C19.0155 25.1338 19.0232 25.1802 19.0388 25.2267C19.0542 25.2732 19.0698 25.3197 19.093 25.3662V25.3739C19.1162 25.4204 19.1472 25.4669 19.1782 25.5134C19.2092 25.5599 19.2402 25.6064 19.2789 25.6529C19.3177 25.6916 19.3642 25.7381 19.4106 25.7768C19.4571 25.8233 19.5036 25.862 19.5578 25.9008C19.7438 26.0635 19.7903 26.1177 20.0304 26.2417C20.0692 26.2649 20.1079 26.2804 20.1544 26.3036C20.1622 26.3036 20.1699 26.3114 20.1777 26.3114C20.1777 26.3269 20.1777 26.3347 20.1854 26.3501C20.1932 26.4121 20.2087 26.4741 20.2241 26.5361C20.2396 26.6058 20.2629 26.6678 20.2861 26.722C20.3094 26.7685 20.3249 26.815 20.3481 26.8615C20.3559 26.877 20.3636 26.8925 20.3714 26.9002C20.4024 26.9622 20.4333 27.0164 20.4643 27.0707C20.5031 27.1249 20.5418 27.1791 20.5805 27.2334C20.6193 27.2799 20.6658 27.3341 20.7122 27.3806C20.7587 27.4271 20.8052 27.4658 20.8595 27.5123C20.8595 27.5123 20.8672 27.52 20.8749 27.52C20.9214 27.5588 20.9679 27.5975 21.0144 27.6285C21.0686 27.6672 21.1229 27.6982 21.1848 27.7292C21.2391 27.7602 21.301 27.7912 21.363 27.8145C21.4095 27.8377 21.4637 27.8532 21.518 27.8687C21.5257 27.8765 21.5335 27.8765 21.549 27.8842C21.58 27.8919 21.6187 27.8997 21.6497 27.9074C21.6265 28.3258 21.6187 28.7209 21.6807 28.8604C21.7504 29.0153 22.0913 28.5427 22.4322 28.0004C22.3857 28.535 22.3547 29.1625 22.4322 29.3485C22.5174 29.5421 22.9823 28.9378 23.3852 28.2715C28.8782 27.001 33.8908 30.7972 34.4177 36.1585C34.3169 35.3218 33.2865 34.857 32.8139 34.9732C32.5815 35.5465 32.1864 36.2825 31.5511 36.7396C31.6053 36.2283 31.5821 35.7014 31.4736 35.1901C31.3032 35.9029 30.97 36.5692 30.5129 37.1425C29.7769 37.1967 29.0409 36.8403 28.6535 36.3058C28.6225 36.2825 28.6148 36.236 28.5915 36.205C28.5683 36.1508 28.545 36.0966 28.5295 36.0423C28.5063 35.9881 28.4908 35.9339 28.483 35.8796C28.4753 35.8254 28.4753 35.7712 28.4753 35.7092C28.4753 35.6705 28.4753 35.6317 28.4753 35.593C28.483 35.5387 28.4985 35.4845 28.514 35.4303C28.5295 35.376 28.545 35.3218 28.5683 35.2676C28.5993 35.2133 28.6225 35.1591 28.6612 35.1049C28.7929 34.733 28.7929 34.4308 28.5528 34.2527C28.5063 34.2217 28.4598 34.1984 28.4056 34.1752C28.3746 34.1674 28.3358 34.1519 28.3048 34.1442C28.2816 34.1364 28.2661 34.1287 28.2429 34.1209C28.1886 34.1054 28.1344 34.0899 28.0802 34.0822C28.0259 34.0667 27.9717 34.059 27.9175 34.059C27.8632 34.0512 27.8012 34.0435 27.747 34.0435C27.7083 34.0435 27.6695 34.0512 27.6308 34.0512C27.5688 34.0512 27.5146 34.059 27.4604 34.0745C27.4061 34.0822 27.3519 34.0899 27.2977 34.1055C27.2434 34.121 27.1892 34.1365 27.135 34.1597C27.0807 34.1829 27.0342 34.2062 26.98 34.2294C26.9335 34.2527 26.887 34.2837 26.8328 34.3069C25.0276 35.4845 26.1045 38.2427 27.3364 39.0407C26.8715 39.1259 26.3989 39.2266 26.2672 39.3273C26.2595 39.3351 26.2518 39.3428 26.2518 39.3428C26.5849 39.5442 26.9335 39.7147 27.2977 39.8619C27.7935 40.0246 28.3203 40.1718 28.5528 40.2338V40.2415C29.1958 40.3732 29.8466 40.4197 30.5052 40.381C33.9373 40.1408 36.7497 37.5299 37.261 34.09C37.2765 34.1597 37.292 34.2217 37.3075 34.2914C37.3307 34.4309 37.3617 34.5781 37.3772 34.7253V34.733C37.3927 34.8028 37.4005 34.8725 37.4082 34.9345V34.9655C37.416 35.0352 37.4237 35.1049 37.4237 35.1669C37.4315 35.2521 37.4392 35.3374 37.4392 35.4226V35.5465C37.4392 35.5853 37.447 35.6318 37.447 35.6705C37.447 35.717 37.4392 35.7635 37.4392 35.81V35.9184C37.4392 35.9727 37.4314 36.0191 37.4314 36.0734C37.4314 36.1044 37.4314 36.1354 37.4237 36.1741C37.4237 36.2283 37.4159 36.2826 37.4159 36.3445C37.4081 36.3678 37.4081 36.391 37.4081 36.4143C37.4004 36.4763 37.3927 36.5305 37.3849 36.5925C37.3849 36.6157 37.3849 36.6389 37.3771 36.6622C37.3694 36.7397 37.3539 36.8094 37.3461 36.8869V36.8946V36.9024C37.3307 36.9721 37.3151 37.0496 37.2997 37.1193V37.1426C37.2842 37.2123 37.2687 37.282 37.2532 37.3518C37.2532 37.3595 37.2454 37.375 37.2454 37.3828C37.2299 37.4525 37.2144 37.5222 37.1912 37.5919V37.6152C37.1679 37.6927 37.1447 37.7624 37.1292 37.8321C37.1214 37.8399 37.1214 37.8476 37.1214 37.8476C37.0982 37.9251 37.075 38.0025 37.0517 38.08C37.0207 38.1575 36.9975 38.2272 36.9665 38.3047C36.9355 38.3822 36.9123 38.4597 36.8813 38.5294C36.8503 38.6069 36.8193 38.6766 36.7883 38.7541H36.7805C36.7495 38.8238 36.7185 38.9013 36.6798 38.971C36.6721 38.9942 36.6643 39.0097 36.6566 39.0252C36.6488 39.033 36.6488 39.0407 36.6411 39.0485C36.1375 40.0634 35.3937 40.9544 34.464 41.6516C34.402 41.6904 34.3401 41.7369 34.2781 41.7833C34.2626 41.7988 34.2393 41.8066 34.2239 41.8221C34.1696 41.8608 34.1154 41.8996 34.0534 41.9383L34.0767 41.9848H34.0844C34.1929 41.9693 34.3013 41.9538 34.4098 41.9383H34.4176C34.619 41.9073 34.8204 41.8686 35.0219 41.8298C35.0761 41.8221 35.1381 41.8066 35.1923 41.7911C35.2311 41.7833 35.262 41.7756 35.3008 41.7679C35.355 41.7601 35.4092 41.7446 35.4635 41.7368C35.51 41.7214 35.5565 41.7136 35.6029 41.6981C36.3777 41.5122 37.1292 41.2565 37.8497 40.9543C36.6179 42.6356 34.9676 43.9914 33.0385 44.8824C33.9295 44.8204 34.8204 44.6732 35.6804 44.4252C38.8027 43.5033 41.4291 41.4037 43.0018 38.5758C42.6842 40.3655 41.9714 42.07 40.9178 43.5575C41.6693 43.0617 42.3588 42.4884 42.9863 41.8376C44.7218 40.0246 45.8607 37.7236 46.2481 35.2521C46.5115 36.4763 46.589 37.7391 46.4727 38.9865C52.0665 31.1847 46.9376 23.0963 44.7915 20.9657C44.7838 20.9502 44.776 20.9424 44.776 20.9269C44.7683 20.9347 44.7683 20.9347 44.7683 20.9424C44.7683 20.9347 44.7683 20.9347 44.7605 20.9269C44.7605 21.0199 44.7528 21.1129 44.745 21.2059C44.7218 21.384 44.6985 21.5545 44.6676 21.7249C44.6288 21.8954 44.5823 22.0658 44.5358 22.2363C44.4816 22.399 44.4196 22.5694 44.3499 22.7321C44.2802 22.8871 44.2027 23.0498 44.1175 23.2047C44.0323 23.3519 43.9393 23.5069 43.8386 23.6463C43.7379 23.7935 43.6294 23.933 43.5209 24.0647C43.4047 24.2042 43.2807 24.3281 43.1568 24.4521C43.0793 24.5218 43.0096 24.5838 42.9321 24.6458C42.8701 24.7 42.8159 24.7465 42.7539 24.8007C42.6145 24.9092 42.475 25.0099 42.3201 25.1029C42.1728 25.1958 42.0179 25.2888 41.8629 25.3663C41.7002 25.4438 41.5375 25.5135 41.3749 25.5832C41.2122 25.6452 41.0417 25.6994 40.8713 25.7459C40.7008 25.7924 40.5226 25.8311 40.3522 25.8621C40.174 25.8931 39.9958 25.9086 39.8253 25.9241C39.7014 25.9319 39.5774 25.9396 39.4535 25.9396C39.2753 25.9396 39.0971 25.9241 38.9266 25.9086C38.7484 25.8931 38.5702 25.8698 38.3998 25.8311C38.2216 25.8001 38.0512 25.7536 37.8807 25.6994H37.8729C38.0434 25.6839 38.2138 25.6684 38.3843 25.6374C38.5625 25.6064 38.7329 25.5677 38.9034 25.5212C39.0738 25.4747 39.2443 25.4205 39.407 25.3585C39.5774 25.2965 39.7401 25.2191 39.8951 25.1416C40.0578 25.0641 40.205 24.9789 40.3599 24.8859C40.5071 24.7852 40.6543 24.6845 40.7938 24.576C40.9332 24.4675 41.0649 24.3513 41.1889 24.2274C41.3206 24.1112 41.4368 23.9794 41.553 23.8477C41.6692 23.7083 41.7777 23.5688 41.8784 23.4294C41.8939 23.4061 41.9094 23.3751 41.9249 23.3519C42.0024 23.2279 42.0799 23.104 42.1496 22.98C42.2348 22.8251 42.3123 22.6701 42.382 22.5074C42.4517 22.3447 42.5137 22.182 42.568 22.0116C42.6222 21.8489 42.6609 21.6784 42.6997 21.508C42.7307 21.3298 42.7616 21.1593 42.7771 20.9889C42.7926 20.8107 42.8081 20.6325 42.8081 20.4621C42.8081 20.3381 42.8004 20.2141 42.7927 20.0902C42.7772 19.912 42.7539 19.7415 42.7307 19.5711C42.6997 19.3929 42.661 19.2225 42.6145 19.052C42.5602 18.8893 42.506 18.7189 42.444 18.5562C42.382 18.3935 42.3046 18.2308 42.2271 18.0758C42.1419 17.9209 42.0566 17.7659 41.9637 17.6187C41.863 17.4715 41.7622 17.3321 41.6538 17.1926C41.5376 17.0609 41.4213 16.9292 41.2974 16.7975C41.2354 16.7355 41.1657 16.6658 41.096 16.6038C40.7473 16.3326 40.3832 16.077 40.019 15.8445C39.9648 15.8135 39.9183 15.7903 39.8641 15.767C39.6084 15.6044 39.3682 15.5191 39.1281 15.4416Z" fill="#E0234E"/>
<defs>
<filter id="filter0_d_304_18" x="0" y="0" width="68" height="68" filterUnits="userSpaceOnUse" color-interpolation-filters="sRGB">
<feFlood flood-opacity="0" result="BackgroundImageFix"/>
<feColorMatrix in="SourceAlpha" type="matrix" values="0 0 0 0 0 0 0 0 0 0 0 0 0 0 0 0 0 0 127 0" result="hardAlpha"/>
<feOffset dy="4"/>
<feGaussianBlur stdDeviation="2"/>
<feComposite in2="hardAlpha" operator="out"/>
<feColorMatrix type="matrix" values="0 0 0 0 0 0 0 0 0 0 0 0 0 0 0 0 0 0 0.25 0"/>
<feBlend mode="normal" in2="BackgroundImageFix" result="effect1_dropShadow_304_18"/>
<feBlend mode="normal" in="SourceGraphic" in2="effect1_dropShadow_304_18" result="shape"/>
</filter>
</defs>
</svg>
