<svg width="20" height="20" viewBox="0 0 20 20" fill="none" xmlns="http://www.w3.org/2000/svg">
<path d="M10.003 18.9246C9.76379 18.9246 9.52671 18.8621 9.31712 18.7413L7.13379 17.4483C6.80754 17.2658 6.96671 17.2013 7.07421 17.1642C7.50921 17.0121 7.59712 16.9775 8.06129 16.7138C8.11004 16.6858 8.17379 16.6958 8.22379 16.7254L9.90129 17.7208C9.96171 17.7537 10.048 17.7537 10.1038 17.7208L16.6442 13.9454C16.7046 13.9108 16.7442 13.8408 16.7442 13.7688V6.22167C16.7442 6.14625 16.705 6.07917 16.643 6.04167L10.1055 2.26917C10.045 2.23334 9.96462 2.23334 9.90421 2.26917L3.36754 6.04125C3.30421 6.07709 3.26379 6.1475 3.26379 6.21959V13.7671C3.26379 13.8392 3.30296 13.9079 3.36546 13.9421L5.15671 14.9767C6.12921 15.4629 6.72337 14.89 6.72337 14.3138V6.865C6.72337 6.75875 6.80671 6.67667 6.91337 6.67667H7.74171C7.84504 6.67667 7.93004 6.75834 7.93004 6.865V14.3175C7.93004 15.6142 7.22296 16.3592 5.99337 16.3592C5.61504 16.3592 5.31712 16.3592 4.48546 15.95L2.76962 14.9613C2.34546 14.7154 2.08337 14.2567 2.08337 13.7675V6.22C2.08337 5.72875 2.34546 5.27042 2.76921 5.02792L9.31671 1.25084C9.73087 1.01667 10.2809 1.01667 10.6921 1.25084L17.2313 5.02959C17.653 5.27334 17.9167 5.73042 17.9167 6.22167V13.7692C17.9167 14.2588 17.653 14.7154 17.2309 14.9613L10.6917 18.7379C10.4821 18.8592 10.2446 18.9213 10.0025 18.9213" fill="#21A366"/>
<path d="M12.0233 13.7238C9.16165 13.7238 8.56165 12.41 8.56165 11.3083C8.56165 11.2038 8.64623 11.12 8.75123 11.12H9.59623C9.68956 11.12 9.76831 11.1879 9.7829 11.28C9.9104 12.1408 10.2904 12.575 12.0208 12.575C13.3991 12.575 13.9854 12.2638 13.9854 11.5325C13.9854 11.1117 13.8183 10.7992 11.6771 10.5896C9.88581 10.4129 8.77915 10.0183 8.77915 8.58584C8.77915 7.26626 9.89248 6.48042 11.7571 6.48042C13.8512 6.48042 14.8891 7.20751 15.02 8.76917C15.025 8.82334 15.0054 8.87542 14.9691 8.91501C14.9333 8.95251 14.8825 8.97542 14.83 8.97542H13.9804C13.8921 8.97542 13.815 8.91334 13.7971 8.82792C13.5925 7.92251 13.0979 7.63292 11.7537 7.63292C10.2491 7.63292 10.0741 8.15667 10.0741 8.54959C10.0741 9.02584 10.2804 9.16501 12.3104 9.43376C14.3208 9.70042 15.2754 10.0771 15.2754 11.49C15.2754 12.9142 14.0866 13.7313 12.0141 13.7313" fill="#21A366"/>
</svg>
