<svg width="68" height="68" viewBox="0 0 68 68" fill="none" xmlns="http://www.w3.org/2000/svg">
<g filter="url(#filter0_d_304_23)">
<circle cx="34" cy="30" r="30" fill="#ECE7E1"/>
</g>
<path d="M34.0003 32.9991C35.4797 32.9991 36.6789 31.7999 36.6789 30.3205C36.6789 28.8412 35.4797 27.642 34.0003 27.642C32.521 27.642 31.3218 28.8412 31.3218 30.3205C31.3218 31.7999 32.521 32.9991 34.0003 32.9991Z" fill="#00D8FF"/>
<path d="M34 36.4619C30.7805 36.5398 27.5691 36.1058 24.4857 35.1762C23.0614 34.7247 21.7329 34.0134 20.5675 33.0783C20.1228 32.7589 19.7524 32.347 19.4819 31.871C19.2113 31.3949 19.0469 30.866 19 30.3205C19 28.5494 20.9457 26.8137 24.205 25.678C27.3708 24.6716 30.6785 24.1839 34 24.2337C37.2772 24.1879 40.5406 24.6668 43.6664 25.6523C45.0382 26.0896 46.3216 26.7665 47.4571 27.6515C47.8943 27.9561 48.2591 28.353 48.5257 28.8143C48.7923 29.2755 48.9542 29.7897 49 30.3205C49 32.1612 46.825 34.0265 43.3214 35.1858C40.2978 36.0852 37.1541 36.5155 34 36.4619ZM34 25.5151C30.8223 25.4726 27.658 25.9363 24.6261 26.8887C21.6261 27.9355 20.2814 29.3669 20.2814 30.3173C20.2814 31.3115 21.7268 32.8748 24.9004 33.9601C27.8501 34.845 30.9214 35.2568 34 35.1805C37.0176 35.2344 40.0256 34.8261 42.9196 33.9698C46.2143 32.878 47.7143 31.3126 47.7143 30.3205C47.6602 29.98 47.5362 29.6544 47.3499 29.3644C47.1636 29.0743 46.9192 28.826 46.6321 28.6351C45.6162 27.8499 44.4697 27.25 43.2454 26.863C40.255 25.9241 37.1339 25.4691 34 25.5151Z" fill="#00D8FF"/>
<path d="M27.9139 43.6801C27.4141 43.6916 26.9202 43.5704 26.4825 43.3287C24.9482 42.4437 24.4168 39.8916 25.0607 36.5005C25.7707 33.2552 27.0009 30.1462 28.7036 27.2937C30.3008 24.432 32.3456 21.8443 34.7604 19.6287C35.8245 18.6588 37.052 17.885 38.3861 17.3434C38.8686 17.1172 39.395 17 39.9279 17C40.4608 17 40.9871 17.1172 41.4697 17.3434C43.065 18.2626 43.5932 21.0784 42.8486 24.6923C42.1167 27.7615 40.9185 30.7003 39.2957 33.4062C37.7547 36.2341 35.7743 38.7993 33.4286 41.0059C32.3259 42.0138 31.0461 42.809 29.6539 43.3512C29.0966 43.5581 28.5083 43.6693 27.9139 43.6801ZM29.8136 27.9301C28.1894 30.6616 27.0104 33.6341 26.3207 36.7362C25.7282 39.8594 26.2972 41.7376 27.1243 42.2155C27.9814 42.7116 30.0622 42.2412 32.5886 40.0341C34.8279 37.9201 36.7181 35.4647 38.1889 32.7591C39.7435 30.1721 40.8929 27.3624 41.5972 24.4276C42.2979 21.0259 41.6925 18.943 40.8332 18.448C40.5112 18.3246 40.167 18.2694 39.8225 18.2858C39.478 18.3022 39.1407 18.3899 38.8318 18.5434C37.6443 19.0334 36.5526 19.729 35.6068 20.5984C33.2997 22.7206 31.3465 25.1979 29.8211 27.9366L29.8136 27.9301Z" fill="#00D8FF"/>
<path d="M40.0824 43.6942C38.6306 43.6942 36.7867 42.8156 34.8667 41.1645C32.4096 38.9287 30.3302 36.3103 28.7092 33.4106C27.0278 30.5974 25.8074 27.5333 25.0942 24.3345C24.7849 22.9272 24.7276 21.4762 24.9249 20.0488C24.9705 19.5193 25.1318 19.0063 25.3972 18.5459C25.6627 18.0855 26.0259 17.6889 26.4613 17.3842C28.0546 16.4617 30.7578 17.4099 33.5167 19.8592C35.8102 22.0258 37.7578 24.5313 39.2917 27.2885C40.972 30.036 42.2052 33.033 42.9453 36.1674C43.2679 37.6264 43.3177 39.1324 43.0921 40.6095C43.0384 41.1542 42.8675 41.6809 42.5912 42.1534C42.3149 42.6259 41.9397 43.0331 41.4913 43.347C41.0608 43.5857 40.5745 43.7055 40.0824 43.6942ZM29.8181 32.7656C31.3732 35.5368 33.3595 38.0428 35.7024 40.1895C38.1121 42.2627 40.0235 42.7085 40.8453 42.2252C41.7024 41.727 42.3346 39.6935 41.6831 36.4031C40.9694 33.4105 39.7866 30.5498 38.1785 27.927C36.7147 25.2882 34.8557 22.889 32.666 20.8127C30.0688 18.507 27.9624 17.9917 27.1042 18.4888C26.8367 18.7062 26.6172 18.9767 26.4595 19.2832C26.3018 19.5896 26.2094 19.9255 26.1881 20.2695C26.0178 21.5425 26.0733 22.8355 26.3521 24.0892C27.0381 27.1482 28.2086 30.078 29.8192 32.7677L29.8181 32.7656Z" fill="#00D8FF"/>
<defs>
<filter id="filter0_d_304_23" x="0" y="0" width="68" height="68" filterUnits="userSpaceOnUse" color-interpolation-filters="sRGB">
<feFlood flood-opacity="0" result="BackgroundImageFix"/>
<feColorMatrix in="SourceAlpha" type="matrix" values="0 0 0 0 0 0 0 0 0 0 0 0 0 0 0 0 0 0 127 0" result="hardAlpha"/>
<feOffset dy="4"/>
<feGaussianBlur stdDeviation="2"/>
<feComposite in2="hardAlpha" operator="out"/>
<feColorMatrix type="matrix" values="0 0 0 0 0 0 0 0 0 0 0 0 0 0 0 0 0 0 0.25 0"/>
<feBlend mode="normal" in2="BackgroundImageFix" result="effect1_dropShadow_304_23"/>
<feBlend mode="normal" in="SourceGraphic" in2="effect1_dropShadow_304_23" result="shape"/>
</filter>
</defs>
</svg>
