<svg width="20" height="18" viewBox="0 0 20 18" fill="none" xmlns="http://www.w3.org/2000/svg">
<path d="M10.0001 10.666C10.9863 10.666 11.7858 9.86656 11.7858 8.88033C11.7858 7.89411 10.9863 7.09462 10.0001 7.09462C9.01385 7.09462 8.21436 7.89411 8.21436 8.88033C8.21436 9.86656 9.01385 10.666 10.0001 10.666Z" fill="#00D8FF"/>
<path d="M10 12.9746C7.85367 13.0265 5.71271 12.7372 3.65714 12.1175C2.70759 11.8165 1.82195 11.3423 1.045 10.7189C0.748521 10.5059 0.501623 10.2314 0.321244 9.91401C0.140866 9.59666 0.0312783 9.24403 0 8.88034C0 7.69962 1.29714 6.54248 3.47 5.78534C5.58052 5.11445 7.78566 4.7893 10 4.82248C12.1848 4.79196 14.3604 5.11123 16.4443 5.7682C17.3588 6.05974 18.2144 6.511 18.9714 7.10105C19.2628 7.30408 19.506 7.56871 19.6838 7.87619C19.8615 8.18368 19.9695 8.52649 20 8.88034C20 10.1075 18.55 11.3511 16.2143 12.1239C14.1985 12.7235 12.1027 13.0104 10 12.9746ZM10 5.67677C7.88151 5.64845 5.77202 5.95756 3.75071 6.59248C1.75071 7.29034 0.854286 8.24462 0.854286 8.8782C0.854286 9.54105 1.81786 10.5832 3.93357 11.3068C5.90005 11.8967 7.94758 12.1713 10 12.1203C12.0117 12.1563 14.0171 11.8841 15.9464 11.3132C18.1429 10.5853 19.1429 9.54177 19.1429 8.88034C19.1068 8.65336 19.0241 8.43632 18.8999 8.24293C18.7758 8.04953 18.6128 7.884 18.4214 7.75677C17.7441 7.2333 16.9798 6.83337 16.1636 6.57534C14.17 5.94945 12.0893 5.6461 10 5.67677Z" fill="#00D8FF"/>
<path d="M5.94279 17.7868C5.60957 17.7944 5.28029 17.7136 4.9885 17.5525C3.96565 16.9625 3.61136 15.2611 4.04065 13.0003C4.51396 10.8368 5.33408 8.76412 6.46922 6.86248C7.53402 4.9547 8.8972 3.22956 10.5071 1.75248C11.2165 1.10584 12.0348 0.590009 12.9242 0.228907C13.2459 0.0781488 13.5968 0 13.9521 0C14.3073 0 14.6582 0.0781488 14.9799 0.228907C16.0435 0.841764 16.3956 2.71891 15.8992 5.12819C15.4113 7.17431 14.6125 9.13351 13.5306 10.9375C12.5033 12.8227 11.1831 14.5328 9.61922 16.0039C8.88406 16.6759 8.03088 17.206 7.10279 17.5675C6.73123 17.7054 6.33905 17.7795 5.94279 17.7868ZM7.20922 7.28676C6.12643 9.10771 5.3404 11.0894 4.88065 13.1575C4.48565 15.2396 4.86493 16.4918 5.41636 16.8103C5.98779 17.1411 7.37493 16.8275 9.05922 15.3561C10.5521 13.9467 11.8122 12.3098 12.7928 10.5061C13.8292 8.78142 14.5954 6.90829 15.0649 4.95176C15.5321 2.68391 15.1285 1.29534 14.5556 0.965335C14.3409 0.883069 14.1115 0.846242 13.8818 0.857185C13.6522 0.868127 13.4273 0.9266 13.2214 1.02891C12.4297 1.35558 11.7019 1.81936 11.0714 2.39891C9.53327 3.81376 8.23114 5.46529 7.21422 7.29105L7.20922 7.28676Z" fill="#00D8FF"/>
<path d="M14.055 17.7961C13.0871 17.7961 11.8578 17.2103 10.5778 16.1096C8.93977 14.6191 7.55354 12.8735 6.47284 10.9403C5.35193 9.06488 4.53832 7.02216 4.06284 4.88963C3.85663 3.9514 3.81842 2.98405 3.94998 2.03248C3.9804 1.67949 4.08788 1.33746 4.26486 1.03053C4.44184 0.723594 4.684 0.459222 4.97427 0.256056C6.03641 -0.358944 7.83855 0.273199 9.67784 1.90606C11.2068 3.35047 12.5053 5.02084 13.5278 6.85891C14.6481 8.69059 15.4702 10.6886 15.9636 12.7782C16.1786 13.7508 16.2118 14.7549 16.0614 15.7396C16.0256 16.1028 15.9117 16.4539 15.7275 16.7689C15.5433 17.0839 15.2932 17.3554 14.9943 17.5646C14.7072 17.7237 14.3831 17.8036 14.055 17.7961ZM7.21212 10.5103C8.24886 12.3578 9.57304 14.0285 11.135 15.4596C12.7414 16.8418 14.0157 17.1389 14.5636 16.8168C15.135 16.4846 15.5564 15.1289 15.1221 12.9353C14.6463 10.9403 13.8578 9.03313 12.7857 7.28463C11.8099 5.52543 10.5705 3.92596 9.11069 2.54177C7.37927 1.00463 5.97498 0.661056 5.40284 0.992484C5.22451 1.1374 5.07817 1.31772 4.97305 1.52205C4.86794 1.72638 4.80633 1.95028 4.79212 2.17963C4.67855 3.02826 4.71555 3.89027 4.90141 4.72606C5.35877 6.76544 6.13908 8.71864 7.21284 10.5118L7.21212 10.5103Z" fill="#00D8FF"/>
</svg>
