<svg width="20" height="20" viewBox="0 0 20 20" fill="none" xmlns="http://www.w3.org/2000/svg">
<g clip-path="url(#clip0_672_70)">
<path d="M1.5625 0H18.4375C19.3004 0 20 0.699555 20 1.5625V18.4375C20 19.3004 19.3004 20 18.4375 20H1.5625C0.699555 20 0 19.3004 0 18.4375V1.5625C0 0.699555 0.699555 0 1.5625 0Z" fill="#3178C6"/>
<path d="M11.7592 15.6621V17.8199C12.1102 17.9998 12.5252 18.1346 13.0044 18.2245C13.4835 18.3145 13.9885 18.3594 14.5195 18.3594C15.0368 18.3594 15.5284 18.3099 15.994 18.211C16.4596 18.1121 16.868 17.9491 17.2188 17.7222C17.5698 17.4952 17.8476 17.1984 18.0523 16.832C18.257 16.4657 18.3594 16.0128 18.3594 15.4734C18.3594 15.0823 18.3009 14.7395 18.1839 14.445C18.067 14.1505 17.8982 13.8887 17.6777 13.6595C17.4573 13.4302 17.193 13.2245 16.8848 13.0424C16.5766 12.8604 16.2291 12.6884 15.8421 12.5266C15.5587 12.4097 15.3045 12.2962 15.0795 12.1861C14.8546 12.0759 14.6634 11.9636 14.5059 11.8489C14.3484 11.7343 14.227 11.6129 14.1415 11.4848C14.056 11.3566 14.0133 11.2117 14.0133 11.0498C14.0133 10.9015 14.0515 10.7678 14.128 10.6487C14.2045 10.5295 14.3125 10.4273 14.452 10.3419C14.5914 10.2564 14.7623 10.1902 14.9648 10.1429C15.1673 10.0957 15.3923 10.0721 15.6397 10.0721C15.8197 10.0721 16.0098 10.0856 16.2099 10.1126C16.4102 10.1395 16.6115 10.1811 16.814 10.2373C17.0164 10.2935 17.2132 10.3643 17.4045 10.4498C17.5956 10.5352 17.7723 10.6341 17.9342 10.7464V8.73023C17.6058 8.60438 17.247 8.51109 16.8578 8.45039C16.4687 8.38969 16.0221 8.35938 15.5182 8.35938C15.0053 8.35938 14.5195 8.41445 14.0605 8.52461C13.6016 8.63469 13.1978 8.80664 12.8491 9.04039C12.5005 9.27422 12.2249 9.57203 12.0224 9.93391C11.82 10.2958 11.7188 10.7284 11.7188 11.232C11.7188 11.8748 11.9043 12.4232 12.2755 12.8773C12.6467 13.3312 13.2102 13.7156 13.966 14.0303C14.263 14.1517 14.5397 14.2708 14.7961 14.3877C15.0526 14.5046 15.2741 14.6259 15.4609 14.7518C15.6476 14.8777 15.7949 15.0148 15.9029 15.1631C16.0109 15.3115 16.0648 15.4801 16.0648 15.6689C16.0648 15.8082 16.0311 15.9375 15.9636 16.0566C15.8962 16.1757 15.7938 16.2791 15.6566 16.3668C15.5194 16.4545 15.3484 16.523 15.1437 16.5724C14.939 16.6219 14.6994 16.6466 14.4249 16.6466C13.957 16.6466 13.4937 16.5646 13.0348 16.4005C12.5758 16.2364 12.1506 15.9903 11.7592 15.6621ZM8.16266 10.2923H10.9375V8.51562H3.20312V10.2923H5.96443V18.2031H8.16266V10.2923Z" fill="white"/>
</g>
<defs>
<clipPath id="clip0_672_70">
<rect width="20" height="20" fill="white"/>
</clipPath>
</defs>
</svg>
