<svg width="56" height="56" viewBox="0 0 56 56" fill="none" xmlns="http://www.w3.org/2000/svg">
<circle cx="28" cy="28" r="28" fill="#06142E"/>
<path d="M15.4431 28.4401L24.4431 19.4401C24.7249 19.1583 25.1071 19 25.5056 19C25.9042 19 26.2864 19.1583 26.5681 19.4401C26.8499 19.7219 27.0082 20.1041 27.0082 20.5026C27.0082 20.9011 26.8499 21.2833 26.5681 21.5651L20.1294 28.0014H38.5044C38.9022 28.0014 39.2838 28.1594 39.5651 28.4407C39.8464 28.722 40.0044 29.1035 40.0044 29.5014C40.0044 29.8992 39.8464 30.2807 39.5651 30.562C39.2838 30.8433 38.9022 31.0014 38.5044 31.0014H20.1294L26.5656 37.4414C26.8474 37.7232 27.0057 38.1054 27.0057 38.5039C27.0057 38.9024 26.8474 39.2846 26.5656 39.5664C26.2839 39.8482 25.9017 40.0065 25.5031 40.0065C25.1046 40.0065 24.7224 39.8482 24.4406 39.5664L15.4406 30.5664C15.3008 30.4268 15.1899 30.261 15.1143 30.0785C15.0387 29.896 14.9999 29.7003 15.0001 29.5027C15.0003 29.3052 15.0396 29.1096 15.1156 28.9272C15.1916 28.7449 15.303 28.5793 15.4431 28.4401Z" fill="#F5EEE6"/>
</svg>
