<svg width="68" height="68" viewBox="0 0 68 68" fill="none" xmlns="http://www.w3.org/2000/svg">
<g filter="url(#filter0_d_304_22)">
<circle cx="34" cy="30" r="30" fill="#ECE7E1"/>
</g>
<path d="M21 18H46V43H21V18Z" fill="#F5DE19"/>
<path d="M37.7936 37.5312C38.0066 37.9639 38.3376 38.3275 38.7483 38.5803C39.159 38.8331 39.6328 38.9646 40.1151 38.9598C41.0883 38.9598 41.7106 38.4732 41.7106 37.7991C41.7106 36.9955 41.0713 36.708 39.9999 36.2392L39.4124 35.9874C37.716 35.2651 36.591 34.3607 36.591 32.4482C36.591 30.6866 37.9302 29.3446 40.0311 29.3446C40.7112 29.2955 41.3907 29.4477 41.9849 29.7822C42.579 30.1168 43.0615 30.6189 43.3722 31.2258L41.5356 32.3999C41.416 32.099 41.2077 31.8415 40.9384 31.6616C40.669 31.4818 40.3514 31.388 40.0276 31.3928C39.8863 31.3787 39.7436 31.3941 39.6086 31.4381C39.4736 31.4822 39.3493 31.5539 39.2435 31.6486C39.1378 31.7434 39.0529 31.8591 38.9944 31.9885C38.9358 32.1178 38.9049 32.258 38.9035 32.3999C38.9035 33.1044 39.3401 33.3901 40.3481 33.8285L40.9356 34.0803C42.932 34.9366 44.0606 35.8089 44.0606 37.7705C44.0606 39.8857 42.399 41.0446 40.1677 41.0446C39.2984 41.1 38.4315 40.9026 37.6719 40.4763C36.9122 40.0499 36.2921 39.4128 35.8865 38.6419L37.7936 37.5312ZM29.4945 37.7348C29.8633 38.3892 30.199 38.9428 31.0061 38.9428C31.7776 38.9428 32.2651 38.641 32.2651 37.4669V29.4785H34.6142V37.4982C34.6142 39.9303 33.1856 41.0374 31.1061 41.0374C30.3711 41.0776 29.6411 40.8944 29.0121 40.512C28.3831 40.1295 27.8846 39.5657 27.582 38.8946L29.4945 37.7348Z" fill="black"/>
<defs>
<filter id="filter0_d_304_22" x="0" y="0" width="68" height="68" filterUnits="userSpaceOnUse" color-interpolation-filters="sRGB">
<feFlood flood-opacity="0" result="BackgroundImageFix"/>
<feColorMatrix in="SourceAlpha" type="matrix" values="0 0 0 0 0 0 0 0 0 0 0 0 0 0 0 0 0 0 127 0" result="hardAlpha"/>
<feOffset dy="4"/>
<feGaussianBlur stdDeviation="2"/>
<feComposite in2="hardAlpha" operator="out"/>
<feColorMatrix type="matrix" values="0 0 0 0 0 0 0 0 0 0 0 0 0 0 0 0 0 0 0.25 0"/>
<feBlend mode="normal" in2="BackgroundImageFix" result="effect1_dropShadow_304_22"/>
<feBlend mode="normal" in="SourceGraphic" in2="effect1_dropShadow_304_22" result="shape"/>
</filter>
</defs>
</svg>
