<svg width="68" height="68" viewBox="0 0 68 68" fill="none" xmlns="http://www.w3.org/2000/svg">
<g filter="url(#filter0_d_318_7)">
<circle cx="34" cy="30" r="30" fill="#ECE7E1"/>
</g>
<path d="M30.8588 34.6875C30.8588 35.205 30.4394 35.625 29.9213 35.625C29.4031 35.625 28.9837 35.205 28.9837 34.6875V25.9375C28.9837 25.5294 29.2481 25.1681 29.6369 25.0437C30.0275 24.92 30.4506 25.0625 30.6862 25.3956L41.1719 40.2106C44.3856 37.9431 46.5 34.2094 46.5 30C46.5 23.125 40.875 17.5 34 17.5C27.125 17.5 21.5 23.125 21.5 30C21.5 36.875 27.125 42.5 34 42.5C35.995 42.5 37.8787 42.0144 39.5562 41.1737L30.8588 28.885V34.6875ZM37.1088 25.3125C37.1088 24.795 37.5281 24.375 38.0463 24.375C38.5644 24.375 38.9838 24.795 38.9838 25.3125V33.9625L37.1088 31.3206V25.3125Z" fill="#212121"/>
<defs>
<filter id="filter0_d_318_7" x="0" y="0" width="68" height="68" filterUnits="userSpaceOnUse" color-interpolation-filters="sRGB">
<feFlood flood-opacity="0" result="BackgroundImageFix"/>
<feColorMatrix in="SourceAlpha" type="matrix" values="0 0 0 0 0 0 0 0 0 0 0 0 0 0 0 0 0 0 127 0" result="hardAlpha"/>
<feOffset dy="4"/>
<feGaussianBlur stdDeviation="2"/>
<feComposite in2="hardAlpha" operator="out"/>
<feColorMatrix type="matrix" values="0 0 0 0 0 0 0 0 0 0 0 0 0 0 0 0 0 0 0.25 0"/>
<feBlend mode="normal" in2="BackgroundImageFix" result="effect1_dropShadow_318_7"/>
<feBlend mode="normal" in="SourceGraphic" in2="effect1_dropShadow_318_7" result="shape"/>
</filter>
</defs>
</svg>
