<svg width="68" height="68" viewBox="0 0 68 68" fill="none" xmlns="http://www.w3.org/2000/svg">
<g filter="url(#filter0_d_304_19)">
<circle cx="34" cy="30" r="30" fill="#ECE7E1"/>
</g>
<path d="M34.0044 43.3869C33.6456 43.3869 33.29 43.2931 32.9756 43.1119L29.7006 41.1725C29.2113 40.8987 29.45 40.8019 29.6113 40.7462C30.2638 40.5181 30.3956 40.4662 31.0919 40.0706C31.165 40.0287 31.2606 40.0437 31.3356 40.0881L33.8519 41.5812C33.9425 41.6306 34.0719 41.6306 34.1556 41.5812L43.9662 35.9181C44.0569 35.8662 44.1163 35.7612 44.1163 35.6531V24.3325C44.1163 24.2194 44.0575 24.1187 43.9644 24.0625L34.1581 18.4037C34.0675 18.35 33.9469 18.35 33.8563 18.4037L24.0512 24.0619C23.9562 24.1156 23.8956 24.2212 23.8956 24.3294V35.6506C23.8956 35.7587 23.9544 35.8619 24.0481 35.9131L26.735 37.465C28.1938 38.1944 29.085 37.335 29.085 36.4706V25.2975C29.085 25.1381 29.21 25.015 29.37 25.015H30.6125C30.7675 25.015 30.895 25.1375 30.895 25.2975V36.4762C30.895 38.4212 29.8344 39.5387 27.99 39.5387C27.4225 39.5387 26.9756 39.5387 25.7281 38.925L23.1544 37.4419C22.5181 37.0731 22.125 36.385 22.125 35.6512V24.33C22.125 23.5931 22.5181 22.9056 23.1537 22.5419L32.975 16.8762C33.5963 16.525 34.4212 16.525 35.0381 16.8762L44.8469 22.5444C45.4794 22.91 45.875 23.5956 45.875 24.3325V35.6537C45.875 36.3881 45.4794 37.0731 44.8463 37.4419L35.0375 43.1069C34.7231 43.2887 34.3669 43.3819 34.0038 43.3819" fill="#21A366"/>
<path d="M37.0348 35.5856C32.7423 35.5856 31.8423 33.615 31.8423 31.9625C31.8423 31.8056 31.9692 31.68 32.1267 31.68H33.3942C33.5342 31.68 33.6523 31.7818 33.6742 31.92C33.8654 33.2112 34.4354 33.8625 37.031 33.8625C39.0985 33.8625 39.9779 33.3956 39.9779 32.2987C39.9779 31.6675 39.7273 31.1987 36.5154 30.8843C33.8285 30.6193 32.1685 30.0275 32.1685 27.8787C32.1685 25.8993 33.8385 24.7206 36.6354 24.7206C39.7767 24.7206 41.3335 25.8112 41.5298 28.1537C41.5373 28.235 41.5079 28.3131 41.4535 28.3725C41.3998 28.4287 41.3235 28.4631 41.2448 28.4631H39.9704C39.8379 28.4631 39.7223 28.37 39.6954 28.2418C39.3885 26.8837 38.6467 26.4493 36.6304 26.4493C34.3735 26.4493 34.111 27.235 34.111 27.8243C34.111 28.5387 34.4204 28.7475 37.4654 29.1506C40.481 29.5506 41.9129 30.1156 41.9129 32.235C41.9129 34.3712 40.1298 35.5968 37.021 35.5968" fill="#21A366"/>
<defs>
<filter id="filter0_d_304_19" x="0" y="0" width="68" height="68" filterUnits="userSpaceOnUse" color-interpolation-filters="sRGB">
<feFlood flood-opacity="0" result="BackgroundImageFix"/>
<feColorMatrix in="SourceAlpha" type="matrix" values="0 0 0 0 0 0 0 0 0 0 0 0 0 0 0 0 0 0 127 0" result="hardAlpha"/>
<feOffset dy="4"/>
<feGaussianBlur stdDeviation="2"/>
<feComposite in2="hardAlpha" operator="out"/>
<feColorMatrix type="matrix" values="0 0 0 0 0 0 0 0 0 0 0 0 0 0 0 0 0 0 0.25 0"/>
<feBlend mode="normal" in2="BackgroundImageFix" result="effect1_dropShadow_304_19"/>
<feBlend mode="normal" in="SourceGraphic" in2="effect1_dropShadow_304_19" result="shape"/>
</filter>
</defs>
</svg>
