<svg width="68" height="69" viewBox="0 0 68 69" fill="none" xmlns="http://www.w3.org/2000/svg">
<g filter="url(#filter0_d_304_21)">
<path d="M64 30.5C64 47.0685 50.5685 60.5 34 60.5C17.4315 60.5 4 47.0685 4 30.5C4 13.9315 17.4315 0.5 34 0.5C50.5685 0.5 64 13.9315 64 30.5Z" fill="#ECE7E1"/>
</g>
<g clip-path="url(#clip0_304_21)">
<path d="M23.9531 19H45.0469C46.1256 19 47 19.8744 47 20.9531V42.0469C47 43.1256 46.1256 44 45.0469 44H23.9531C22.8744 44 22 43.1256 22 42.0469V20.9531C22 19.8744 22.8744 19 23.9531 19Z" fill="#3178C6"/>
<path d="M36.699 38.5776V41.2749C37.1377 41.4997 37.6565 41.6683 38.2555 41.7807C38.8544 41.8931 39.4856 41.9492 40.1493 41.9492C40.796 41.9492 41.4104 41.8874 41.9925 41.7638C42.5745 41.6401 43.085 41.4364 43.5235 41.1527C43.9622 40.8689 44.3095 40.498 44.5654 40.04C44.8213 39.5821 44.9492 39.016 44.9492 38.3417C44.9492 37.8528 44.8761 37.4243 44.7299 37.0562C44.5837 36.6882 44.3728 36.3608 44.0972 36.0743C43.8217 35.7877 43.4912 35.5307 43.1061 35.303C42.7208 35.0755 42.2863 34.8605 41.8026 34.6583C41.4483 34.5121 41.1307 34.3703 40.8494 34.2326C40.5683 34.0949 40.3292 33.9545 40.1324 33.8111C39.9355 33.6679 39.7837 33.5161 39.6769 33.356C39.57 33.1958 39.5166 33.0146 39.5166 32.8123C39.5166 32.6269 39.5644 32.4598 39.66 32.3108C39.7556 32.1619 39.8906 32.0341 40.0649 31.9273C40.2393 31.8205 40.4529 31.7377 40.7061 31.6786C40.9591 31.6196 41.2403 31.5901 41.5496 31.5901C41.7746 31.5901 42.0122 31.607 42.2624 31.6407C42.5127 31.6744 42.7644 31.7264 43.0175 31.7967C43.2705 31.8669 43.5165 31.9554 43.7556 32.0622C43.9945 32.1689 44.2153 32.2926 44.4178 32.433V29.9128C44.0072 29.7555 43.5587 29.6389 43.0723 29.563C42.5858 29.4871 42.0276 29.4492 41.3978 29.4492C40.7566 29.4492 40.1493 29.5181 39.5757 29.6558C39.0021 29.7934 38.4973 30.0083 38.0614 30.3005C37.6256 30.5928 37.2812 30.965 37.028 31.4174C36.775 31.8697 36.6484 32.4105 36.6484 33.0399C36.6484 33.8435 36.8804 34.529 37.3444 35.0966C37.8084 35.6641 38.5127 36.1445 39.4575 36.5379C39.8287 36.6896 40.1746 36.8385 40.4951 36.9847C40.8157 37.1308 41.0927 37.2824 41.3261 37.4397C41.5595 37.5971 41.7437 37.7685 41.8786 37.9539C42.0136 38.1394 42.0811 38.3501 42.0811 38.5861C42.0811 38.7603 42.0389 38.9219 41.9545 39.0708C41.8702 39.2196 41.7422 39.3489 41.5707 39.4585C41.3992 39.5681 41.1854 39.6537 40.9296 39.7155C40.6737 39.7773 40.3742 39.8083 40.0312 39.8083C39.4463 39.8083 38.8671 39.7058 38.2935 39.5006C37.7197 39.2955 37.1883 38.9879 36.699 38.5776ZM32.2033 31.8654H35.6719V29.6445H26.0039V31.8654H29.4555V41.7539H32.2033V31.8654Z" fill="white"/>
</g>
<defs>
<filter id="filter0_d_304_21" x="0" y="0.5" width="68" height="68" filterUnits="userSpaceOnUse" color-interpolation-filters="sRGB">
<feFlood flood-opacity="0" result="BackgroundImageFix"/>
<feColorMatrix in="SourceAlpha" type="matrix" values="0 0 0 0 0 0 0 0 0 0 0 0 0 0 0 0 0 0 127 0" result="hardAlpha"/>
<feOffset dy="4"/>
<feGaussianBlur stdDeviation="2"/>
<feComposite in2="hardAlpha" operator="out"/>
<feColorMatrix type="matrix" values="0 0 0 0 0 0 0 0 0 0 0 0 0 0 0 0 0 0 0.25 0"/>
<feBlend mode="normal" in2="BackgroundImageFix" result="effect1_dropShadow_304_21"/>
<feBlend mode="normal" in="SourceGraphic" in2="effect1_dropShadow_304_21" result="shape"/>
</filter>
<clipPath id="clip0_304_21">
<rect width="25" height="25" fill="white" transform="translate(22 19)"/>
</clipPath>
</defs>
</svg>
